<svg width="59" height="17" viewBox="0 0 59 17" fill="none" xmlns="http://www.w3.org/2000/svg">
<path d="M6.7179 16.3001C5.58356 16.3997 4.45364 16.0656 3.5559 15.3651C3.18662 14.9384 2.90812 14.4411 2.7374 13.9033C2.56667 13.3655 2.5073 12.7986 2.5629 12.2371V6.46606H0.946899V3.92706H2.5629V1.15706H5.6099V3.92706H8.5649V6.46606H5.6099V11.7751C5.56289 12.3004 5.69736 12.8259 5.9909 13.2641C6.18176 13.4361 6.40723 13.5652 6.65216 13.6428C6.89709 13.7205 7.1558 13.7447 7.4109 13.7141C7.87223 13.7141 8.3339 13.6911 8.7959 13.6451V16.1841C8.50323 16.2147 8.19923 16.2417 7.8839 16.2651C7.56857 16.2884 7.1799 16.3001 6.7179 16.3001ZM10.9879 3.92806H13.8039V5.72806C13.9254 5.45947 14.0807 5.20744 14.2659 4.97806C14.4699 4.72067 14.7113 4.49519 14.9819 4.30906C15.2648 4.11372 15.5712 3.9548 15.8939 3.83606C16.2465 3.70888 16.6191 3.64622 16.9939 3.65106C17.2447 3.64834 17.4953 3.66371 17.7439 3.69706C17.8805 3.71093 18.0149 3.74184 18.1439 3.78906V6.48906C17.9523 6.41632 17.7554 6.35849 17.5549 6.31606C17.2393 6.25513 16.9182 6.22797 16.5969 6.23506C16.1923 6.22359 15.7902 6.3025 15.4199 6.46606C15.1108 6.60767 14.8374 6.8168 14.6199 7.07806C14.4085 7.33913 14.2551 7.64217 14.1699 7.96706C14.0767 8.31332 14.0303 8.67049 14.0319 9.02906V16.1621H10.9849L10.9879 3.92806ZM25.2989 16.4351C24.4946 16.4393 23.6952 16.3105 22.9329 16.0541C22.2081 15.8128 21.5432 15.4193 20.9829 14.9001C20.4057 14.3504 19.9564 13.6806 19.6669 12.9381C19.3267 12.0512 19.1619 11.1067 19.1819 10.1571V9.69506C19.1634 8.78829 19.3214 7.88658 19.6469 7.04006C19.9268 6.32734 20.3605 5.68509 20.9169 5.15906C21.4565 4.65837 22.0929 4.27346 22.7869 4.02806C23.5208 3.76973 24.2939 3.64081 25.0719 3.64706C25.8677 3.59056 26.6667 3.69605 27.4205 3.95713C28.1744 4.21822 28.8675 4.62948 29.4579 5.16606C29.987 5.76215 30.392 6.45778 30.649 7.21226C30.9061 7.96674 31.0101 8.76491 30.9549 9.56006V10.8491H22.2989C22.3021 11.3313 22.396 11.8086 22.5759 12.2561C22.7254 12.6229 22.9538 12.9524 23.2449 13.2211C23.5218 13.4693 23.8484 13.6558 24.2029 13.7681C24.5582 13.8834 24.9294 13.9421 25.3029 13.9421C25.9143 13.9782 26.5248 13.8581 27.0769 13.5931C27.4739 13.3642 27.7766 13.0016 27.9309 12.5701H30.7239C30.635 13.1517 30.4272 13.7089 30.1133 14.2066C29.7995 14.7044 29.3864 15.1321 28.8999 15.4631C27.8242 16.1409 26.5696 16.4796 25.2989 16.4351ZM25.1839 6.14006C24.8294 6.14002 24.4764 6.18642 24.1339 6.27806C23.8039 6.36262 23.4939 6.51183 23.2219 6.71706C22.9474 6.93324 22.7264 7.20971 22.5759 7.52506C22.3963 7.90792 22.3018 8.32517 22.2989 8.74806H27.9989C27.9982 8.31333 27.9161 7.88258 27.7569 7.47806C27.628 7.16255 27.4217 6.88464 27.1569 6.67006C26.8956 6.46657 26.5917 6.32471 26.2679 6.25506C25.912 6.17642 25.5484 6.13785 25.1839 6.14006ZM33.1469 3.92406H35.9639V5.72406C36.3014 5.12319 36.7912 4.62173 37.3839 4.27006C38.1883 3.81684 39.1047 3.60083 40.0269 3.64706C40.6361 3.59859 41.2487 3.68055 41.8238 3.88747C42.3989 4.09439 42.9232 4.42153 43.3619 4.84706C44.1532 5.82044 44.5462 7.05748 44.4619 8.30906V16.1571H41.4109V9.00006C41.4652 8.2643 41.2661 7.53212 40.8469 6.92506C40.5983 6.67241 40.296 6.479 39.9624 6.3592C39.6287 6.2394 39.2724 6.19629 38.9199 6.23306C38.4929 6.22046 38.068 6.29922 37.6739 6.46406C37.3524 6.60544 37.0649 6.81413 36.8309 7.07606C36.6077 7.32987 36.4422 7.62908 36.3459 7.95306C36.2445 8.29377 36.1939 8.64759 36.1959 9.00306V16.1591H33.1469V3.92406ZM51.7289 16.4351C51.02 16.4697 50.3122 16.3481 49.6555 16.0789C48.9989 15.8097 48.4094 15.3994 47.9289 14.8771C46.897 13.5298 46.3985 11.8491 46.5289 10.1571V9.69506C46.4153 8.07133 46.9181 6.46446 47.9369 5.19506C48.418 4.678 49.0058 4.27181 49.6596 4.00468C50.3133 3.73754 51.0174 3.61585 51.7229 3.64806C52.491 3.63358 53.2495 3.82044 53.9229 4.19006C54.545 4.53668 55.0782 5.02273 55.4809 5.61006V6.10352e-05H58.5279V16.1581H55.6989V14.3581C55.3462 14.9581 54.8465 15.4585 54.2469 15.8121C53.4835 16.2541 52.6103 16.4702 51.7289 16.4351ZM52.4469 13.8501C53.257 13.8836 54.0475 13.5961 54.6469 13.0501C54.9485 12.7248 55.1792 12.3404 55.3243 11.9212C55.4694 11.502 55.5258 11.0572 55.4899 10.6151V9.23306C55.5211 8.81715 55.4596 8.3995 55.3099 8.01023C55.1601 7.62097 54.9258 7.2698 54.6239 6.98206C54.0149 6.47059 53.2377 6.20334 52.4429 6.23206C52.0617 6.21963 51.6824 6.2907 51.3316 6.44029C50.9807 6.58989 50.6668 6.81439 50.4119 7.09806C49.8352 7.83652 49.5552 8.76383 49.6269 9.69806V10.1601C49.549 11.1545 49.8362 12.1432 50.4349 12.9411C50.6819 13.2323 50.9906 13.4649 51.3385 13.6221C51.6865 13.7794 52.0651 13.8572 52.4469 13.8501Z" fill="black" fill-opacity="0.85"/>
</svg>
